{"title":"Fargo S01E08 HDTV x264 AAC [GWC].mp4","uid":10291927,"size":159925083,"categoryP":"video","categoryS":"tv_shows","magnet":"?xt=urn:btih:f0bbaf4c4db997468efa43b86540d596b673b54b&amp;dn=Fargo+S01E08+HDTV+x264+AAC+%5BGWC%5D.mp4&amp;tr=udp%3A%2F%2Ftracker.openbittorrent.com%3A80&amp;tr=udp%3A%2F%2Fopen.demonii.com%3A1337&amp;tr=udp%3A%2F%2Ftracker.coppersurfer.tk%3A6969&amp;tr=udp%3A%2F%2Fexodus.desync.com%3A6969","seeders":2,"leechers":0,"uploader":"canc232","files":1,"time":1401870889,"description":"Fargo S01E08 HDTV x264 AAC [GWC]\n\n\nSTORYLINE :\nA drifter named Lorne Malvo arrives in small-town Minnesota and influences the population with his malice and violence, including put-upon insurance salesman Lester Nygaard.\n\n\nSCREENS : &lt;a href=&quot;\nhttp://i.imgur.com/Ralq23k.jpg&quot; rel=&quot;nofollow&quot; target=&quot;_NEW&quot;&gt;\nhttp://i.imgur.com/Ralq23k.jpg&lt;/a&gt; &lt;a href=&quot;\nhttp://i.imgur.com/U6MmwOH.jpg&quot; rel=&quot;nofollow&quot; target=&quot;_NEW&quot;&gt;\nhttp://i.imgur.com/U6MmwOH.jpg&lt;/a&gt; &lt;a href=&quot;\nhttp://i.imgur.com/7WLrzOI.jpg&quot; rel=&quot;nofollow&quot; target=&quot;_NEW&quot;&gt;\nhttp://i.imgur.com/7WLrzOI.jpg&lt;/a&gt;\n\n\nMEDIA INFO :\nGeneral \nFormat : MPEG-4 \nFormat profile : Base Media \nFile size : 153 MiB \nDuration : 53mn 21s \nOverall bit rate mode : Variable \nOverall bit rate : 400 Kbps \n\nVideo \nFormat : AVC  \nFormat profile : &lt;a class=&quot;__cf_email__&quot; href=&quot;/cdn-cgi/l/email-protection&quot; data-cfemail=&quot;733b1a141b333f405d43&quot;&gt;[email&amp;#160;protected]&lt;/a&gt;&lt;script cf-hash='f9e31' type=&quot;text/javascript&quot;&gt;\n/* &lt;![CDATA[ */!function(){try{var t=&quot;currentScript&quot;in document?document.currentScript:function(){for(var t=document.getElementsByTagName(&quot;script&quot;),e=t.length;e--;)if(t[e].getAttribute(&quot;cf-hash&quot;))return t[e]}();if(t&amp;&amp;t.previousSibling){var e,r,n,i,c=t.previousSibling,a=c.getAttribute(&quot;data-cfemail&quot;);if(a){for(e=&quot;&quot;,r=parseInt(a.substr(0,2),16),n=2;a.length-n;n+=2)i=parseInt(a.substr(n,2),16)^r,e+=String.fromCharCode(i);e=document.createTextNode(e),c.parentNode.replaceChild(e,c)}}}catch(u){}}();/* ]]&gt; */&lt;/script&gt; \nFormat settings, CABAC : Yes \nFormat settings, ReFrames : 4 frames \nDuration : 53mn 21s \nBit rate : 336 Kbps \nWidth : 720 pixels \nHeight : 404 pixels \nDisplay aspect ratio : 16:9 \nFrame rate mode : Constant \nFrame rate : 23.976 fps \nStream size : 128 MiB (84%) \nTitle : Fargo S01E08 HDTV x264 AAC [GWC] \nWriting library : x264 core\n\nAudio \nFormat : AAC \nFormat profile : HE-AAC / LC \nDuration : 53mn 21s \nBit rate mode : Variable \nChannel(s) : 2 channels \nSampling rate : 48.0 KHz / 24.0 KHz \nStream size : 22.9 MiB (15%) \nLanguage : English ","torrent":{"xt":"urn:btih:f0bbaf4c4db997468efa43b86540d596b673b54b","amp;dn":"Fargo+S01E08+HDTV+x264+AAC+%5BGWC%5D.mp4","amp;tr":["udp%3A%2F%2Ftracker.openbittorrent.com%3A80","udp%3A%2F%2Fopen.demonii.com%3A1337","udp%3A%2F%2Ftracker.coppersurfer.tk%3A6969","udp%3A%2F%2Fexodus.desync.com%3A6969"],"infoHash":"f0bbaf4c4db997468efa43b86540d596b673b54b","infoHashBuffer":{"type":"Buffer","data":[240,187,175,76,77,185,151,70,142,250,67,184,101,64,213,150,182,115,181,75]},"announce":[],"urlList":[]}}